<svg viewBox="0 0 480 80" xmlns="http://www.w3.org/2000/svg" fill="none">
  <defs>
    <style>
      @import url('https://fonts.googleapis.com/css2?family=Rajdhani:wght@700&amp;family=Geist+Mono:wght@400&amp;display=swap');
    </style>
  </defs>

  <!-- Lyre mark scaled to fit 80-unit height -->
  <g transform="translate(0, -2) scale(0.78)">
    <path d="M 25 18 C 10 30 10 65 26 78" stroke="#C87844" stroke-width="7" stroke-linecap="round"/>
    <path d="M 75 18 C 90 30 90 65 74 78" stroke="#C87844" stroke-width="7" stroke-linecap="round"/>
    <line x1="22" y1="18" x2="78" y2="18" stroke="#C87844" stroke-width="7" stroke-linecap="round"/>
    <path d="M 23 80 Q 50 96 77 80" stroke="#C87844" stroke-width="6" stroke-linecap="round"/>
    <line x1="32" y1="72" x2="68" y2="72" stroke="#C87844" stroke-width="4" stroke-linecap="round"/>
    <line x1="36" y1="22" x2="36" y2="72" stroke="#00D4C8" stroke-width="2" stroke-opacity="1"/>
    <line x1="43" y1="22" x2="43" y2="72" stroke="#00D4C8" stroke-width="2" stroke-opacity="0.7"/>
    <line x1="50" y1="22" x2="50" y2="72" stroke="#00D4C8" stroke-width="2" stroke-opacity="0.45"/>
    <line x1="57" y1="22" x2="57" y2="72" stroke="#00D4C8" stroke-width="2" stroke-opacity="0.25"/>
    <line x1="64" y1="22" x2="64" y2="72" stroke="#00D4C8" stroke-width="2" stroke-opacity="0.1"/>
    <circle cx="36" cy="72" r="7" fill="#00D4C8" fill-opacity="0.12"/>
    <circle cx="36" cy="72" r="3.5" fill="#00D4C8"/>
  </g>

  <!-- ORPHEUS wordmark -->
  <text
    x="72"
    y="52"
    font-family="Rajdhani, 'Arial Black', sans-serif"
    font-size="52"
    font-weight="700"
    letter-spacing="8"
    fill="#C87844">ORPHEUS</text>

  <!-- Subtitle -->
  <text
    x="74"
    y="70"
    font-family="'Geist Mono', 'Courier New', monospace"
    font-size="10"
    letter-spacing="3"
    fill="#6B5D8A">ADVERSARIAL EVALUATION LAB</text>
</svg>
